<svg xmlns="http://www.w3.org/2000/svg" xmlns:xlink="http://www.w3.org/1999/xlink" version="1.1" x="0px" y="0px" fill="#cc293d" viewBox="0 0 100 100" style="enable-background:new 0 0 100 100;" xml:space="preserve"><g><path d="M11.4,71.7c0,9.3,7.6,16.9,16.9,16.9h43.3c9.3,0,16.9-7.6,16.9-16.9V28.3c0-9.3-7.6-16.9-16.9-16.9H28.3   c-9.3,0-16.9,7.6-16.9,16.9V71.7z M15.6,28.3c0-7,5.7-12.7,12.7-12.7h43.3c7,0,12.7,5.7,12.7,12.7v43.3c0,7-5.7,12.7-12.7,12.7   H28.3c-7,0-12.7-5.7-12.7-12.7V28.3z"/><polygon points="38.3,67.7 50,56 61.7,67.7 67.7,61.7 56,50 67.7,38.3 61.7,32.3 50,44 38.3,32.3 32.3,38.3 44,50 32.3,61.7  "/></g></svg>